<mxfile host="app.diagrams.net" modified="2022-08-07T17:52:37.531Z" agent="5.0 (Windows NT 10.0; Win64; x64) AppleWebKit/537.36 (KHTML, like Gecko) Chrome/104.0.0.0 Safari/537.36" etag="Yz5XnF6s6Kvq5K8tN2jg" version="20.1.1" type="github">
  <diagram id="v9bv8oP5sPH2Qc7CunU7" name="Page-1">
    <mxGraphModel dx="850" dy="438" grid="1" gridSize="10" guides="1" tooltips="1" connect="1" arrows="1" fold="1" page="1" pageScale="1" pageWidth="1169" pageHeight="1654" math="0" shadow="0">
      <root>
        <mxCell id="0" />
        <mxCell id="1" parent="0" />
        <mxCell id="f7Bj1M_kfHC3mxLLMypp-18" style="edgeStyle=orthogonalEdgeStyle;rounded=0;orthogonalLoop=1;jettySize=auto;html=1;entryX=0;entryY=0.5;entryDx=0;entryDy=0;" edge="1" parent="1" source="f7Bj1M_kfHC3mxLLMypp-1" target="f7Bj1M_kfHC3mxLLMypp-15">
          <mxGeometry relative="1" as="geometry" />
        </mxCell>
        <mxCell id="f7Bj1M_kfHC3mxLLMypp-1" value="" style="rounded=1;whiteSpace=wrap;html=1;" vertex="1" parent="1">
          <mxGeometry x="120" y="160" width="120" height="60" as="geometry" />
        </mxCell>
        <mxCell id="f7Bj1M_kfHC3mxLLMypp-2" value="Updating Task" style="text;html=1;strokeColor=none;fillColor=none;align=center;verticalAlign=middle;whiteSpace=wrap;rounded=0;" vertex="1" parent="1">
          <mxGeometry x="150" y="175" width="60" height="30" as="geometry" />
        </mxCell>
        <mxCell id="f7Bj1M_kfHC3mxLLMypp-23" style="edgeStyle=orthogonalEdgeStyle;rounded=0;orthogonalLoop=1;jettySize=auto;html=1;entryX=0;entryY=0.5;entryDx=0;entryDy=0;" edge="1" parent="1" source="f7Bj1M_kfHC3mxLLMypp-6" target="f7Bj1M_kfHC3mxLLMypp-1">
          <mxGeometry relative="1" as="geometry" />
        </mxCell>
        <mxCell id="f7Bj1M_kfHC3mxLLMypp-6" value="Call CPM" style="rounded=1;whiteSpace=wrap;html=1;" vertex="1" parent="1">
          <mxGeometry x="550" y="40" width="120" height="60" as="geometry" />
        </mxCell>
        <mxCell id="f7Bj1M_kfHC3mxLLMypp-24" style="edgeStyle=orthogonalEdgeStyle;rounded=0;orthogonalLoop=1;jettySize=auto;html=1;entryX=0;entryY=0.5;entryDx=0;entryDy=0;" edge="1" parent="1" source="f7Bj1M_kfHC3mxLLMypp-8" target="f7Bj1M_kfHC3mxLLMypp-1">
          <mxGeometry relative="1" as="geometry" />
        </mxCell>
        <mxCell id="f7Bj1M_kfHC3mxLLMypp-8" value="Gantt Autoschedule" style="whiteSpace=wrap;html=1;" vertex="1" parent="1">
          <mxGeometry x="550" y="310" width="120" height="60" as="geometry" />
        </mxCell>
        <mxCell id="f7Bj1M_kfHC3mxLLMypp-10" value="CPM ==1" style="text;html=1;strokeColor=none;fillColor=none;align=center;verticalAlign=middle;whiteSpace=wrap;rounded=0;" vertex="1" parent="1">
          <mxGeometry x="610" y="130" width="60" height="30" as="geometry" />
        </mxCell>
        <mxCell id="f7Bj1M_kfHC3mxLLMypp-11" value="CPM ==2" style="text;html=1;strokeColor=none;fillColor=none;align=center;verticalAlign=middle;whiteSpace=wrap;rounded=0;" vertex="1" parent="1">
          <mxGeometry x="610" y="240" width="60" height="30" as="geometry" />
        </mxCell>
        <mxCell id="f7Bj1M_kfHC3mxLLMypp-19" style="edgeStyle=orthogonalEdgeStyle;rounded=0;orthogonalLoop=1;jettySize=auto;html=1;entryX=0.5;entryY=1;entryDx=0;entryDy=0;" edge="1" parent="1" source="f7Bj1M_kfHC3mxLLMypp-15" target="f7Bj1M_kfHC3mxLLMypp-6">
          <mxGeometry relative="1" as="geometry" />
        </mxCell>
        <mxCell id="f7Bj1M_kfHC3mxLLMypp-20" style="edgeStyle=orthogonalEdgeStyle;rounded=0;orthogonalLoop=1;jettySize=auto;html=1;" edge="1" parent="1" source="f7Bj1M_kfHC3mxLLMypp-15" target="f7Bj1M_kfHC3mxLLMypp-8">
          <mxGeometry relative="1" as="geometry" />
        </mxCell>
        <mxCell id="f7Bj1M_kfHC3mxLLMypp-15" value="OnBeforeTaskUpdate" style="rounded=1;whiteSpace=wrap;html=1;" vertex="1" parent="1">
          <mxGeometry x="370" y="160" width="120" height="60" as="geometry" />
        </mxCell>
      </root>
    </mxGraphModel>
  </diagram>
</mxfile>
